<svg xmlns="http://www.w3.org/2000/svg" width="153.901" height="101.899" viewBox="0 0 153.901 101.899">
    <g data-name="Group 2661">
        <path data-name="Path 138" d="M187.132 457.856a2.611 2.611 0 1 1-2.611-2.611 2.611 2.611 0 0 1 2.611 2.611zm0 0" transform="translate(-163.639 -361.192)" style="fill:#9e1f63"/>
        <path data-name="Path 139" d="M299.627 303.171a2.61 2.61 0 0 0-3.563-.96l-12.288 7.064a2.57 2.57 0 0 0-.886.839l-9.614 14.751a29.907 29.907 0 0 1-21.1 8.634h-50.408a5.33 5.33 0 0 1-5.246-4.284c-.617-2.98 1.332-5.766 5.214-7.449a14.665 14.665 0 0 1 5.85-1.123h15.206a9.39 9.39 0 0 0 0-18.781H208.6a27.191 27.191 0 0 0-19.844 8.64l-28.567 30.682a5.263 5.263 0 0 1-7.065.755 4.985 4.985 0 0 1-.605-7.13l30.675-35.241a23.036 23.036 0 0 1 17.381-7.912h43.473a32.1 32.1 0 0 0 13.545-3.021c3.071-1.442 12.631-10.605 15.485-13.38a2.61 2.61 0 1 0-3.635-3.746c-5.555 5.4-12.513 11.669-14.069 12.4a26.822 26.822 0 0 1-11.326 2.526h-43.473a28.249 28.249 0 0 0-21.316 9.705l-30.675 35.24a10.2 10.2 0 0 0 1.221 14.584 9.876 9.876 0 0 0 6.329 2.248 10.6 10.6 0 0 0 4.477-1.027 2.563 2.563 0 0 0 .725.233l.412.044a31.991 31.991 0 0 0 3.563.2 29.053 29.053 0 0 0 7.363-.952 31.309 31.309 0 0 0 62.154-5.384c0-.87-.047-1.741-.119-2.611h17.464a35.089 35.089 0 0 0 24.983-10.348 2.5 2.5 0 0 0 .341-.422l9.424-14.461 11.742-6.753a2.606 2.606 0 0 0 .964-3.563zm-97.861 35.55h17.156a15.652 15.652 0 1 1-27.263-7.614 10.455 10.455 0 0 0 10.108 7.614zm21.025-31.637a4.17 4.17 0 0 1 0 8.339H221a2.406 2.406 0 0 0-.239-.239 31.069 31.069 0 0 0-24.423-4.318 21.964 21.964 0 0 1 12.262-3.782zm-50.609 34.333a24.04 24.04 0 0 1-5.987.976l6.572-7.06a31.343 31.343 0 0 0-.591 6c0 .028.006.056.006.086zm57.424-.086a26.389 26.389 0 1 1-22.878-25.871 19.54 19.54 0 0 0-7.068 1.516c-4.069 1.763-6.379 4.286-7.53 6.911a2.533 2.533 0 0 0-.306.13 20.927 20.927 0 1 0 32.389 14.7h5.21a26.035 26.035 0 0 1 .183 2.611zm0 0" transform="translate(-146.075 -270.77)" style="fill:#9e1f63"/>
        <path data-name="Path 140" d="M399.663 404.046a2.61 2.61 0 0 0-2.611 2.611v2.611h-2.609a2.61 2.61 0 1 0 0 5.22h2.609v2.612a2.611 2.611 0 0 0 5.222 0v-2.611h2.609a2.61 2.61 0 1 0 0-5.22h-2.609v-2.611a2.611 2.611 0 0 0-2.611-2.611zm0 0" transform="translate(-266.532 -336.095)" style="fill:#9e1f63"/>
        <path data-name="Path 141" d="M164.041 306.969h2.611v2.611a2.61 2.61 0 0 0 5.22 0v-2.611h2.611a2.611 2.611 0 0 0 0-5.222h-2.611v-2.609a2.61 2.61 0 1 0-5.22 0v2.609h-2.611a2.611 2.611 0 1 0 0 5.222zm0 0" transform="translate(-153.601 -283.396)" style="fill:#9e1f63"/>
        <path data-name="Rectangle 38" transform="translate(9.95 95.899)" style="fill:#9e1f63" d="M0 0h128v6H0z"/>
    </g>
</svg>
