<svg xmlns="http://www.w3.org/2000/svg" width="118.663" height="81.298" viewBox="0 0 118.663 81.298">
    <g data-name="520648">
        <g data-name="Group 520">
            <path data-name="Path 954" d="M108.233 80.609h-97.8A10.441 10.441 0 0 0 0 91.038v60.44a10.441 10.441 0 0 0 10.429 10.429h97.8a10.441 10.441 0 0 0 10.429-10.429v-60.44a10.441 10.441 0 0 0-10.425-10.429zm-1.361 6.953-1.392 1.159L63.469 123.7a6.466 6.466 0 0 1-8.276 0L13.182 88.721l-1.392-1.159zM6.953 92.581l34.23 28.5-34.23 22.784zm101.28 62.373h-97.8a3.482 3.482 0 0 1-3.407-2.784l39.735-26.444 3.987 3.32a13.419 13.419 0 0 0 17.174 0l3.987-3.32 39.731 26.444a3.482 3.482 0 0 1-3.407 2.784zm3.476-11.089-34.23-22.78 34.23-28.5z" transform="translate(0 -80.609)" style="fill:#9e1f63"/>
        </g>
    </g>
</svg>
