<svg xmlns="http://www.w3.org/2000/svg" width="97.15" height="97.15" viewBox="0 0 97.15 97.15">
    <path data-name="Path 955" d="M93.438 40.729a8.551 8.551 0 0 0-11.255 1.4v-27.9A8.545 8.545 0 0 0 70.5 6.3a8.535 8.535 0 0 0-15.438-2.351 8.546 8.546 0 0 0-12.73 7.436v.49a8.546 8.546 0 0 0-11.386 8.049v7.043a8.574 8.574 0 0 0-4.291 5.325 8.545 8.545 0 0 0-11.687 7.935v22.208A8.552 8.552 0 0 0 1.489 72.911c8.675 12.687 8.045 11.844 8.48 12.2l10.693 8.823v.366a2.846 2.846 0 0 0 5.693 0v-1.7a2.846 2.846 0 0 0-1.035-2.2L13.9 80.981 6.188 69.7a2.858 2.858 0 1 1 4.72-3.226l4.557 6.668a2.847 2.847 0 0 0 5.2-1.606v-31.31a2.847 2.847 0 1 1 5.693.095V57.3a2.846 2.846 0 0 0 5.693 0V34.534a2.846 2.846 0 0 1 5.693 0V57.3a2.846 2.846 0 0 0 5.693 0V37.38a2.846 2.846 0 0 1 5.693 0V57.3a2.846 2.846 0 0 0 5.693 0v-9.484a2.846 2.846 0 0 1 5.693 0v27.053A16.479 16.479 0 0 1 55.652 86.6a2.845 2.845 0 0 0-.834 2.013V94.3a2.846 2.846 0 0 0 5.693 0v-4.555A22.117 22.117 0 0 0 66.2 74.869V47.816a8.553 8.553 0 0 0-6.794-8.359V8.539a2.846 2.846 0 0 1 5.693 0v26a2.846 2.846 0 0 0 5.693 0V14.326a2.847 2.847 0 1 1 5.693-.095v37a2.847 2.847 0 0 0 5.2 1.606l4.557-6.668a2.858 2.858 0 1 1 4.72 3.226l-7.74 11.319L72.9 69.775a2.846 2.846 0 0 0-.968 2.139V94.3a2.846 2.846 0 0 0 5.693 0V73.2c10.481-9.2 9.8-8.56 10.092-8.98l7.942-11.615a8.561 8.561 0 0 0-2.223-11.879zm-56.8-14.554v-6.252a2.846 2.846 0 0 1 5.693 0v9.889q-.123.064-.243.132a8.561 8.561 0 0 0-5.449-3.769zm11.386 2.846V11.385a2.846 2.846 0 0 1 5.693 0v21.809a8.565 8.565 0 0 0-5.693-4.172z" style="fill:#9e1f63"/>
    <path data-name="Path 956" d="M50.8 54.843a2.846 2.846 0 0 0 4.025-4.025l-3.985-3.985a2.846 2.846 0 0 0-4.025 4.025z" transform="translate(-37.257 -37.271)" style="fill:#9e1f63"/>
    <path data-name="Path 957" d="M123.62 11.1a2.847 2.847 0 0 0 5.5-1.473l-1.457-5.438a2.847 2.847 0 0 0-5.5 1.473z" transform="translate(-98.903 -1.683)" style="fill:#9e1f63"/>
    <path data-name="Path 958" d="M4.166 127.673 9.6 129.13a2.846 2.846 0 1 0 1.474-5.5l-5.439-1.457a2.846 2.846 0 1 0-1.474 5.5z" transform="translate(-1.665 -98.913)" style="fill:#9e1f63"/>
</svg>
