<svg xmlns="http://www.w3.org/2000/svg" width="119.614" height="82.234" viewBox="0 0 119.614 82.234">
    <g data-name="3037255">
        <path data-name="Path 952" d="M106.531 80H13.083A13.1 13.1 0 0 0 0 93.083v56.069a13.1 13.1 0 0 0 13.083 13.083h93.448a13.1 13.1 0 0 0 13.083-13.083V93.083A13.1 13.1 0 0 0 106.531 80zm-93.448 7.476h93.448a5.613 5.613 0 0 1 5.607 5.607v7.476H7.476v-7.476a5.613 5.613 0 0 1 5.607-5.607zm93.448 67.283H13.083a5.613 5.613 0 0 1-5.607-5.607v-41.118h104.662v41.117a5.613 5.613 0 0 1-5.607 5.608z" style="fill:#9e1f63" transform="translate(0 -80)"/>
        <path data-name="Path 953" d="M87.476 315.214h-3.738A3.738 3.738 0 0 1 80 311.476v-3.738A3.738 3.738 0 0 1 83.738 304h3.738a3.738 3.738 0 0 1 3.738 3.738v3.738a3.738 3.738 0 0 1-3.738 3.738z" transform="translate(-61.31 -251.669)" style="fill:#9e1f63"/>
    </g>
</svg>
