<svg xmlns="http://www.w3.org/2000/svg" width="98" height="98" viewBox="0 0 98 98">
    <g data-name="Group 2693" transform="translate(-835 -1033)">
        <circle data-name="Ellipse 14" cx="49" cy="49" r="49" transform="translate(835 1033)" style="fill:#00b1ff"/>
        <path data-name="Icon awesome-twitter" d="M64.86 18.013c.046.642.046 1.284.046 1.927 0 19.586-14.908 42.154-42.154 42.154A41.869 41.869 0 0 1 0 55.443a30.649 30.649 0 0 0 3.578.183A29.672 29.672 0 0 0 21.972 49.3 14.842 14.842 0 0 1 8.119 39.022a18.684 18.684 0 0 0 2.8.229 15.67 15.67 0 0 0 3.9-.5A14.818 14.818 0 0 1 2.936 24.206v-.183a14.921 14.921 0 0 0 6.7 1.881 14.838 14.838 0 0 1-4.59-19.817 42.114 42.114 0 0 0 30.549 15.5 16.725 16.725 0 0 1-.367-3.394A14.83 14.83 0 0 1 60.869 8.059a29.17 29.17 0 0 0 9.4-3.578 14.776 14.776 0 0 1-6.514 8.165 29.7 29.7 0 0 0 8.532-2.293 31.849 31.849 0 0 1-7.431 7.66z" transform="translate(848 1049.619)" style="fill:#fff"/>
    </g>
</svg>
